<svg width="506" height="107" viewBox="0 0 506 107" fill="none" xmlns="http://www.w3.org/2000/svg">
<path d="M60.7035 80.4852L20.878 41.5415V80.366C17.4103 80.366 13.9246 80.366 10.4152 80.366C6.91762 80.366 3.44392 80.366 0 80.366V1.02484H7.31683L47.2853 40.0638V1.35851C50.7471 1.35851 54.1851 1.35851 57.6052 1.35851C61.0372 1.35851 64.4811 1.35851 67.9488 1.35851V80.4852H60.7035Z" fill="#0047AB" fill-opacity="0.302"/>
<path d="M164.212 40.9695C164.212 47.8216 163.056 53.8038 160.756 58.916C158.468 64.0342 155.4 68.3063 151.557 71.7383C147.725 75.1584 143.406 77.7324 138.591 79.4603C133.777 81.1883 128.808 82.0582 123.695 82.0582C118.577 82.0582 113.614 81.1883 108.8 79.4603C103.985 77.7324 99.6536 75.1584 95.8104 71.7383C91.9792 68.3063 88.9107 64.0342 86.6108 58.916C84.3228 53.8038 83.1788 47.8216 83.1788 40.9695C83.1788 34.1234 84.3228 28.1412 86.6108 23.023C88.9107 17.9108 91.9792 13.6446 95.8104 10.2245C99.6536 6.7925 103.985 4.23638 108.8 2.55017C113.614 0.852042 118.577 0 123.695 0C128.808 0 133.777 0.852042 138.591 2.55017C143.406 4.23638 147.725 6.7925 151.557 10.2245C155.4 13.6446 158.468 17.9108 160.756 23.023C163.056 28.1412 164.212 34.1234 164.212 40.9695ZM103.938 40.9695C103.938 45.7243 104.897 49.6925 106.821 52.8862C108.74 56.0798 111.207 58.4751 114.21 60.06C117.225 61.633 120.406 62.4195 123.743 62.4195C127.092 62.4195 130.273 61.633 133.276 60.06C136.291 58.4751 138.764 56.0798 140.689 52.8862C142.607 49.6925 143.572 45.7243 143.572 40.9695C143.572 36.2386 142.607 32.2882 140.689 29.1243C138.764 25.9664 136.291 23.595 133.276 22.022C130.273 20.4371 127.092 19.6387 123.743 19.6387C120.406 19.6387 117.225 20.4371 114.21 22.022C111.207 23.595 108.74 25.9664 106.821 29.1243C104.897 32.2882 103.938 36.2386 103.938 40.9695Z" fill="#0047AB" fill-opacity="0.302"/>
<path d="M217.72 35.4402L249.204 1.12018H256.426V80.366C252.976 80.366 249.538 80.366 246.106 80.366C242.686 80.366 239.248 80.366 235.786 80.366V45.1403L218.96 62.7532H216.695L199.988 45.1403V80.366C196.538 80.366 193.1 80.366 189.668 80.366C186.248 80.366 182.81 80.366 179.349 80.366V1.12018H186.785L217.72 35.4402Z" fill="#0047AB" fill-opacity="0.302"/>
<path d="M326.755 80.366L322.132 70.4275H290.981L286.358 80.366H266.6V77.4345L302.159 0.333679H310.835L346.513 77.4345V80.366H326.755ZM315.577 53.1722L306.449 32.3895L297.512 53.1722H315.577Z" fill="#0047AB" fill-opacity="0.302"/>
<path d="M386.695 1.35852C393.16 1.35852 398.803 2.4906 403.617 4.74285C408.431 7.00106 412.435 9.9981 415.629 13.728C418.835 17.446 421.254 21.6586 422.874 26.3597C424.495 31.0668 425.305 35.9049 425.305 40.8742C425.305 45.8315 424.495 50.6637 422.874 55.3649C421.254 60.0719 418.835 64.2904 415.629 68.0204C412.435 71.7384 408.431 74.7294 403.617 76.9817C398.803 79.2399 393.16 80.366 386.695 80.366H356.904V1.35852H386.695ZM377.091 19.7579V61.9667H386.695C390.902 61.9667 394.4 60.9538 397.182 58.916C399.959 56.8842 402.05 54.2685 403.45 51.0749C404.845 47.8812 405.548 44.4849 405.548 40.8742C405.548 37.2515 404.845 33.8434 403.45 30.6497C402.05 27.456 399.959 24.8463 397.182 22.8085C394.4 20.7767 390.902 19.7579 386.695 19.7579H377.091Z" fill="#0047AB" fill-opacity="0.302"/>
<path d="M468.874 55.5317H468.183L453.049 80.366H431.956V77.3154L457.458 38.4909L434.649 4.40919V1.35852H455.313L468.183 21.9029H468.755L481.959 1.35852H502.265V4.40919L479.48 38.4909L505.101 77.3154V80.366H483.865L468.874 55.5317Z" fill="#0047AB" fill-opacity="0.302"/>
<path d="M60.7035 92.4779L20.878 53.5342V92.3587C17.4103 92.3587 13.9246 92.3587 10.4152 92.3587C6.91762 92.3587 3.44392 92.3587 0 92.3587V13.0175H7.31683L47.2853 52.0565V13.3512C50.7471 13.3512 54.1851 13.3512 57.6052 13.3512C61.0372 13.3512 64.4811 13.3512 67.9488 13.3512V92.4779H60.7035Z" fill="#0047AB" fill-opacity="0.502"/>
<path d="M164.212 52.9622C164.212 59.8143 163.056 65.7964 160.756 70.9087C158.468 76.0269 155.4 80.299 151.557 83.731C147.725 87.1511 143.406 89.7251 138.591 91.453C133.777 93.1809 128.808 94.0509 123.695 94.0509C118.577 94.0509 113.614 93.1809 108.8 91.453C103.985 89.7251 99.6536 87.1511 95.8104 83.731C91.9792 80.299 88.9107 76.0269 86.6108 70.9087C84.3228 65.7964 83.1788 59.8143 83.1788 52.9622C83.1788 46.1161 84.3228 40.1339 86.6108 35.0157C88.9107 29.9034 91.9792 25.6373 95.8104 22.2172C99.6536 18.7852 103.985 16.2291 108.8 14.5428C113.614 12.8447 118.577 11.9927 123.695 11.9927C128.808 11.9927 133.777 12.8447 138.591 14.5428C143.406 16.2291 147.725 18.7852 151.557 22.2172C155.4 25.6373 158.468 29.9034 160.756 35.0157C163.056 40.1339 164.212 46.1161 164.212 52.9622ZM103.938 52.9622C103.938 57.7169 104.897 61.6852 106.821 64.8788C108.74 68.0725 111.207 70.4678 114.21 72.0527C117.225 73.6257 120.406 74.4122 123.743 74.4122C127.092 74.4122 130.273 73.6257 133.276 72.0527C136.291 70.4678 138.764 68.0725 140.689 64.8788C142.607 61.6852 143.572 57.7169 143.572 52.9622C143.572 48.2313 142.607 44.2809 140.689 41.117C138.764 37.9591 136.291 35.5877 133.276 34.0147C130.273 32.4298 127.092 31.6313 123.743 31.6313C120.406 31.6313 117.225 32.4298 114.21 34.0147C111.207 35.5877 108.74 37.9591 106.821 41.117C104.897 44.2809 103.938 48.2313 103.938 52.9622Z" fill="#0047AB" fill-opacity="0.502"/>
<path d="M217.72 47.4329L249.204 13.1129H256.426V92.3587C252.976 92.3587 249.538 92.3587 246.106 92.3587C242.686 92.3587 239.248 92.3587 235.786 92.3587V57.133L218.96 74.7459H216.695L199.988 57.133V92.3587C196.538 92.3587 193.1 92.3587 189.668 92.3587C186.248 92.3587 182.81 92.3587 179.349 92.3587V13.1129H186.785L217.72 47.4329Z" fill="#0047AB" fill-opacity="0.502"/>
<path d="M326.755 92.3587L322.132 82.4202H290.981L286.358 92.3587H266.6V89.4272L302.159 12.3264H310.835L346.513 89.4272V92.3587H326.755ZM315.577 65.1649L306.449 44.3822L297.512 65.1649H315.577Z" fill="#0047AB" fill-opacity="0.502"/>
<path d="M386.695 13.3512C393.16 13.3512 398.803 14.4833 403.617 16.7355C408.431 18.9937 412.435 21.9908 415.629 25.7207C418.835 29.4387 421.254 33.6512 422.874 38.3524C424.495 43.0594 425.305 47.8976 425.305 52.8669C425.305 57.8242 424.495 62.6564 422.874 67.3575C421.254 72.0646 418.835 76.2831 415.629 80.013C412.435 83.731 408.431 86.7221 403.617 88.9744C398.803 91.2326 393.16 92.3587 386.695 92.3587H356.904V13.3512H386.695ZM377.091 31.7505V73.9594H386.695C390.902 73.9594 394.4 72.9464 397.182 70.9087C399.959 68.8769 402.05 66.2612 403.45 63.0675C404.845 59.8739 405.548 56.4776 405.548 52.8669C405.548 49.2442 404.845 45.836 403.45 42.6424C402.05 39.4487 399.959 36.8389 397.182 34.8012C394.4 32.7694 390.902 31.7505 386.695 31.7505H377.091Z" fill="#0047AB" fill-opacity="0.502"/>
<path d="M468.874 67.5244H468.183L453.049 92.3587H431.956V89.308L457.458 50.4835L434.649 16.4019V13.3512H455.313L468.183 33.8955H468.755L481.959 13.3512H502.265V16.4019L479.48 50.4835L505.101 89.308V92.3587H483.865L468.874 67.5244Z" fill="#0047AB" fill-opacity="0.502"/>
<path d="M60.7035 104.471L20.878 65.5269V104.351C17.4103 104.351 13.9246 104.351 10.4152 104.351C6.91762 104.351 3.44392 104.351 0 104.351V25.0103H7.31683L47.2853 64.0493V25.3439C50.7471 25.3439 54.1851 25.3439 57.6052 25.3439C61.0372 25.3439 64.4811 25.3439 67.9488 25.3439V104.471H60.7035Z" fill="#0047AB"/>
<path d="M164.212 64.9549C164.212 71.807 163.056 77.7892 160.756 82.9014C158.468 88.0196 155.4 92.2918 151.557 95.7238C147.725 99.1438 143.406 101.718 138.591 103.446C133.777 105.174 128.808 106.044 123.695 106.044C118.577 106.044 113.614 105.174 108.8 103.446C103.985 101.718 99.6536 99.1438 95.8104 95.7238C91.9792 92.2918 88.9107 88.0196 86.6108 82.9014C84.3228 77.7892 83.1788 71.807 83.1788 64.9549C83.1788 58.1088 84.3228 52.1266 86.6108 47.0084C88.9107 41.8962 91.9792 37.63 95.8104 34.2099C99.6536 30.7779 103.985 28.2218 108.8 26.5356C113.614 24.8375 118.577 23.9854 123.695 23.9854C128.808 23.9854 133.777 24.8375 138.591 26.5356C143.406 28.2218 147.725 30.7779 151.557 34.2099C155.4 37.63 158.468 41.8962 160.756 47.0084C163.056 52.1266 164.212 58.1088 164.212 64.9549ZM103.938 64.9549C103.938 69.7097 104.897 73.6779 106.821 76.8716C108.74 80.0653 111.207 82.4605 114.21 84.0454C117.225 85.6184 120.406 86.4049 123.743 86.4049C127.092 86.4049 130.273 85.6184 133.276 84.0454C136.291 82.4605 138.764 80.0653 140.689 76.8716C142.607 73.6779 143.572 69.7097 143.572 64.9549C143.572 60.224 142.607 56.2736 140.689 53.1097C138.764 49.9518 136.291 47.5804 133.276 46.0074C130.273 44.4225 127.092 43.6241 123.743 43.6241C120.406 43.6241 117.225 44.4225 114.21 46.0074C111.207 47.5804 108.74 49.9518 106.821 53.1097C104.897 56.2736 103.938 60.224 103.938 64.9549Z" fill="#0047AB"/>
<path d="M217.72 59.4256L249.204 25.1056H256.426V104.351C252.976 104.351 249.538 104.351 246.106 104.351C242.686 104.351 239.248 104.351 235.786 104.351V69.1258L218.96 86.7386H216.695L199.988 69.1258V104.351C196.538 104.351 193.1 104.351 189.668 104.351C186.248 104.351 182.81 104.351 179.349 104.351V25.1056H186.785L217.72 59.4256Z" fill="#0047AB"/>
<path d="M326.755 104.351L322.132 94.4129H290.981L286.358 104.351H266.6V101.42L302.159 24.3191H310.835L346.513 101.42V104.351H326.755ZM315.577 77.1576L306.449 56.3749L297.512 77.1576H315.577Z" fill="#0047AB"/>
<path d="M386.695 25.3439C393.16 25.3439 398.803 26.476 403.617 28.7282C408.431 30.9864 412.435 33.9835 415.629 37.7134C418.835 41.4314 421.254 45.6439 422.874 50.3451C424.495 55.0522 425.305 59.8903 425.305 64.8596C425.305 69.8169 424.495 74.6491 422.874 79.3502C421.254 84.0573 418.835 88.2758 415.629 92.0057C412.435 95.7237 408.431 98.7148 403.617 100.967C398.803 103.225 393.16 104.351 386.695 104.351H356.904V25.3439H386.695ZM377.091 43.7432V85.9521H386.695C390.902 85.9521 394.4 84.9392 397.182 82.9014C399.959 80.8696 402.05 78.2539 403.45 75.0602C404.845 71.8666 405.548 68.4703 405.548 64.8596C405.548 61.2369 404.845 57.8287 403.45 54.6351C402.05 51.4414 399.959 48.8317 397.182 46.7939C394.4 44.7621 390.902 43.7432 386.695 43.7432H377.091Z" fill="#0047AB"/>
<path d="M468.874 79.5171H468.183L453.049 104.351H431.956V101.301L457.458 62.4762L434.649 28.3946V25.3439H455.313L468.183 45.8882H468.755L481.959 25.3439H502.265V28.3946L479.48 62.4762L505.101 101.301V104.351H483.865L468.874 79.5171Z" fill="#0047AB"/>
</svg>
